# xmcd
#
# Track frame offsets:
#	150
#	15130
#	32235
#	49130
#	65890
#	85827
#	101822
#	121307
#	143270
#	162197
#	180070
#	199062
#	219565
#	234992
#	245667
#	269977
#	289560
#	305340
#
# Disc length: 4273 seconds
#
# Revision: 0
# Processed by: cddbd v1.5.2PL0 Copyright (c) Steve Scherf et al.
# Submitted via: dBpowerAMP V4.0
#
DISCID=f710af12
DTITLE=Dicky Williams - Leave Them Alone
DYEAR=1900
DGENRE=
TTITLE0=Leave Them Alone
TTITLE1=Battered Women
TTITLE2=Battered Women
TTITLE3=Let Me Be The Other Man
TTITLE4=Laundromat Affair
TTITLE5=Been Loving You Too Long
TTITLE6=Old Baldhead Man
TTITLE7=Understanding Before Sex
TTITLE8=So In Love
TTITLE9=Dance Me To Death
TTITLE10=Find A Way To Love Again
TTITLE11=Is It Over
TTITLE12=Pull Together
TTITLE13=Hugging And Hugging
TTITLE14=Touching You
TTITLE15=Christmas Again
TTITLE16=Aids
TTITLE17=Two Men In Bed Together
EXTD=
EXTT0=
EXTT1=
EXTT2=
EXTT3=
EXTT4=
EXTT5=
EXTT6=
EXTT7=
EXTT8=
EXTT9=
EXTT10=
EXTT11=
EXTT12=
EXTT13=
EXTT14=
EXTT15=
EXTT16=
EXTT17=
PLAYORDER=
